<?xml version="1.0" standalone="no"?>
<!DOCTYPE svg PUBLIC "-//W3C//DTD SVG 20010904//EN"
 "http://www.w3.org/TR/2001/REC-SVG-20010904/DTD/svg10.dtd">
<svg version="1.0" xmlns="http://www.w3.org/2000/svg"
 width="1152.000000pt" height="1152.000000pt" viewBox="0 0 1152.000000 1152.000000"
 preserveAspectRatio="xMidYMid meet">
<metadata>
Created by potrace 1.11, written by Peter Selinger 2001-2013
</metadata>
<g transform="translate(0.000000,1152.000000) scale(0.100000,-0.100000)"
fill="#000000" stroke="none">
<path d="M4028 8555 c-2 -2 -64 -6 -138 -9 -74 -4 -173 -9 -220 -12 -47 -4
-107 -8 -135 -9 -27 -2 -50 -4 -50 -5 0 0 -29 -3 -65 -5 -36 -2 -92 -7 -125
-10 -33 -3 -82 -8 -110 -11 -27 -2 -63 -6 -80 -8 -16 -2 -61 -7 -100 -11 -38
-3 -77 -8 -85 -10 -8 -3 -42 -7 -75 -11 -109 -12 -153 -18 -285 -39 -47 -8
-103 -17 -125 -20 -61 -9 -96 -15 -150 -25 -27 -5 -66 -12 -85 -16 -46 -7
-178 -32 -210 -38 -14 -3 -45 -10 -70 -15 -25 -5 -63 -13 -85 -17 -44 -8 -54
-10 -57 -14 -4 -2 -23 -6 -68 -13 -19 -4 -73 -16 -120 -28 -47 -11 -96 -23
-110 -25 -14 -3 -33 -7 -42 -10 -9 -3 -25 -7 -35 -9 -10 -2 -63 -16 -118 -30
-55 -15 -107 -28 -116 -30 -9 -2 -47 -12 -85 -24 -38 -11 -80 -22 -94 -25 -26
-4 -40 -9 -75 -22 -11 -4 -25 -8 -31 -9 -28 -7 -292 -87 -309 -95 -11 -5 -58
-21 -105 -35 -47 -14 -89 -27 -95 -29 -5 -2 -13 -3 -16 -2 -3 0 -12 -4 -20
-10 -12 -9 -54 -24 -74 -25 -2 0 -30 -11 -60 -24 -31 -14 -64 -25 -75 -25 -10
0 -22 -5 -25 -10 -4 -6 -11 -8 -16 -5 -5 4 -9 1 -9 -4 0 -6 -3 -10 -8 -10 -4
1 -10 0 -14 -1 -5 -1 -12 -3 -18 -4 -29 -3 -2 -21 72 -47 46 -16 89 -31 96
-34 7 -2 14 -4 17 -5 3 0 19 -7 35 -15 16 -8 31 -15 32 -14 2 1 35 -8 73 -21
39 -14 72 -25 75 -25 3 -1 12 -4 20 -8 8 -3 47 -16 85 -28 39 -12 90 -28 115
-37 25 -8 59 -18 75 -22 17 -5 93 -27 170 -50 77 -23 147 -43 155 -45 16 -2
95 -24 120 -33 8 -3 22 -6 31 -8 8 -2 98 -24 200 -49 195 -48 222 -55 254 -60
11 -1 38 -8 60 -13 40 -11 172 -40 210 -47 11 -1 38 -6 60 -9 22 -4 47 -9 55
-13 8 -3 31 -7 50 -10 19 -2 52 -9 72 -14 20 -5 40 -9 45 -8 4 1 10 0 13 -1 3
-1 14 -3 25 -5 26 -3 144 -24 170 -29 11 -2 43 -7 70 -11 28 -4 59 -9 70 -10
63 -9 327 -46 365 -50 25 -3 56 -7 70 -10 30 -4 118 -13 315 -30 39 -4 84 -8
100 -10 17 -1 73 -6 125 -9 52 -4 122 -9 155 -11 217 -15 383 -19 795 -19 256
0 521 3 590 7 175 10 266 16 330 21 30 3 91 8 135 11 44 3 98 8 120 10 22 3
65 7 95 10 88 8 163 16 190 21 14 3 48 7 75 9 28 2 66 7 85 9 19 3 57 8 84 12
27 3 56 7 65 9 9 1 41 6 71 10 30 4 64 9 75 11 10 2 37 6 60 9 67 10 96 15
180 30 86 15 110 20 165 29 41 7 69 12 130 25 25 5 59 12 75 14 17 3 73 15
125 27 52 12 106 23 120 25 14 2 61 13 105 25 44 11 91 22 105 25 45 9 32 5
430 110 8 3 33 9 55 15 22 6 48 12 57 15 9 2 26 9 37 15 12 6 21 9 21 6 0 -3
26 4 58 15 31 11 57 19 57 18 0 -4 242 73 273 87 18 8 41 14 51 14 10 0 21 3
25 7 3 4 12 8 19 9 43 7 407 143 386 144 -3 0 -44 14 -90 31 -78 29 -554 190
-554 188 0 -1 -40 11 -90 27 -49 15 -96 29 -103 30 -7 1 -36 10 -65 19 -28 9
-59 17 -67 19 -8 2 -22 6 -30 9 -12 5 -75 23 -150 42 -119 30 -422 105 -442
109 -60 13 -83 18 -128 29 -14 4 -36 9 -50 11 -26 5 -44 9 -120 25 -42 9 -122
23 -127 23 -2 -1 -17 4 -35 9 -18 5 -53 12 -78 15 -25 3 -61 9 -80 14 -19 5
-54 11 -77 14 -22 3 -52 7 -65 10 -12 3 -39 8 -58 11 -19 2 -46 7 -59 9 -12 3
-44 8 -70 11 -43 5 -65 8 -136 20 -16 3 -52 8 -80 11 -27 3 -61 7 -75 10 -14
2 -47 6 -75 9 -27 3 -66 7 -85 10 -67 8 -135 16 -190 20 -30 3 -77 7 -105 11
-27 3 -79 7 -115 10 -36 2 -90 6 -120 8 -62 5 -219 16 -330 23 -85 5 -1057 12
-1062 8z"/>
<path d="M19 7639 c-1 -8 0 -18 1 -24 1 -5 4 -23 6 -40 17 -140 23 -176 45
-300 19 -104 30 -158 43 -215 4 -14 8 -36 11 -50 14 -75 124 -441 155 -515 5
-11 30 -73 55 -138 113 -289 274 -596 448 -857 53 -79 165 -237 182 -256 5 -7
21 -27 35 -44 14 -18 50 -63 80 -99 30 -36 61 -74 70 -84 8 -11 40 -46 71 -78
30 -32 54 -59 52 -59 -5 0 219 -219 287 -279 36 -33 101 -89 145 -125 44 -36
93 -77 108 -91 15 -14 30 -25 33 -25 5 0 81 -55 110 -79 6 -5 24 -16 40 -25
16 -9 41 -24 56 -34 274 -177 689 -373 1003 -472 39 -12 77 -24 85 -27 19 -7
9 -5 170 -47 127 -33 253 -62 310 -71 14 -2 63 -11 110 -19 112 -20 142 -24
222 -31 37 -3 77 -8 90 -10 116 -23 696 -23 862 0 17 2 74 9 126 16 52 6 104
13 115 16 11 2 27 5 35 5 8 0 33 4 55 9 22 4 55 10 73 13 17 4 46 8 64 11 17
3 34 8 38 10 4 3 22 7 41 9 157 23 619 175 862 285 69 31 260 125 287 141 8 5
60 35 115 65 153 86 295 178 384 250 21 17 55 44 76 60 236 183 583 534 763
773 9 12 22 29 29 36 7 8 53 72 103 142 49 71 93 134 97 140 5 5 13 19 20 30
6 10 34 55 61 99 47 76 192 333 192 341 0 2 18 41 41 86 22 46 56 121 76 168
19 47 40 91 45 98 6 6 7 12 4 12 -4 0 -1 10 6 23 7 12 12 25 13 29 0 3 3 10 8
14 4 4 7 14 7 22 0 8 6 28 14 45 17 39 48 127 55 159 1 4 9 27 17 50 26 74
100 346 108 400 3 15 7 31 10 36 2 4 7 28 11 52 3 25 8 54 10 65 5 29 16 88
20 105 2 8 4 21 4 29 1 18 14 6 17 -16 2 -9 5 -27 9 -40 3 -13 5 -24 4 -25 0
-2 5 -16 11 -33 7 -16 13 -39 15 -50 3 -17 13 -60 60 -235 4 -18 34 -138 39
-160 2 -8 9 -35 16 -60 7 -25 13 -52 15 -60 2 -8 19 -78 39 -155 20 -77 39
-149 41 -160 2 -11 4 -20 5 -20 1 0 3 -7 5 -15 2 -8 10 -42 18 -75 41 -158 59
-232 62 -248 2 -10 13 -51 24 -91 11 -40 22 -83 25 -97 3 -13 33 -130 66 -259
33 -129 63 -244 65 -256 3 -11 25 -101 51 -200 25 -98 47 -186 49 -194 2 -8
11 -42 20 -75 9 -33 18 -69 21 -80 9 -43 14 -65 48 -195 19 -74 37 -146 40
-160 3 -14 31 -122 61 -240 31 -118 58 -222 60 -230 2 -8 8 -35 15 -60 6 -25
20 -79 30 -120 10 -41 23 -90 28 -107 6 -18 9 -33 6 -33 -3 0 0 -8 5 -17 5
-10 12 -31 15 -48 3 -16 17 -75 31 -130 14 -55 27 -111 30 -124 14 -79 122
-155 212 -150 79 5 153 52 187 117 31 61 29 113 -10 235 -20 61 -39 121 -44
132 -11 26 -22 57 -26 70 -4 13 -150 436 -157 455 -3 8 -31 87 -61 175 -30 88
-61 179 -70 203 -8 23 -13 42 -9 42 3 0 1 6 -5 13 -5 6 -30 73 -55 147 -25 74
-71 207 -102 295 -31 88 -58 167 -60 175 -2 8 -28 85 -58 170 -30 85 -67 191
-82 235 -14 44 -30 89 -35 100 -5 11 -27 76 -50 145 -22 69 -45 134 -50 145
-4 11 -27 76 -50 145 -24 69 -53 153 -66 188 -13 34 -21 62 -17 62 3 0 0 6 -6
14 -7 8 -14 22 -16 32 -2 11 -33 105 -70 209 -36 105 -68 197 -70 205 -2 8
-18 53 -35 100 -17 47 -33 92 -35 100 -2 8 -11 35 -19 59 -19 51 -15 67 5 22
8 -17 17 -31 21 -31 5 0 8 -5 8 -10 0 -12 41 -73 53 -78 4 -2 7 -9 7 -16 0 -7
13 -30 30 -52 16 -21 30 -43 30 -47 0 -4 5 -13 10 -20 6 -7 28 -39 49 -72 21
-33 51 -80 67 -105 16 -25 33 -53 39 -63 37 -65 391 -613 397 -615 5 -2 8 -8
8 -12 0 -5 25 -49 56 -97 113 -176 142 -221 255 -397 63 -98 123 -194 134
-212 60 -99 100 -159 107 -162 4 -2 8 -8 8 -13 0 -5 37 -66 83 -137 46 -70 94
-146 107 -169 13 -24 27 -43 32 -43 4 0 8 -4 8 -9 0 -12 102 -175 113 -179 4
-2 7 -8 7 -13 0 -6 23 -43 50 -84 28 -41 50 -78 50 -83 0 -5 9 -17 20 -27 11
-10 20 -22 20 -27 0 -5 17 -35 38 -66 20 -32 43 -66 50 -77 43 -68 52 -81 61
-92 6 -7 11 -14 11 -17 0 -8 98 -159 140 -215 3 -4 23 -17 44 -30 47 -27 127
-34 182 -15 40 13 139 108 129 124 -3 5 -1 11 4 14 13 8 7 115 -8 151 -11 26
-80 124 -154 215 -15 19 -31 40 -35 45 -58 78 -172 226 -189 245 -13 14 -23
28 -23 32 0 3 -6 13 -12 20 -7 7 -35 42 -63 78 -27 36 -52 67 -55 70 -4 3 -27
34 -53 70 -25 36 -56 77 -69 92 -13 15 -51 65 -85 110 -129 170 -223 293 -235
308 -7 8 -26 32 -42 54 -16 22 -33 45 -38 51 -5 5 -58 75 -119 155 -60 80
-115 152 -122 160 -7 8 -48 62 -92 120 -44 58 -82 107 -86 110 -3 3 -10 12
-15 21 -5 9 -21 32 -37 50 -15 19 -56 72 -92 119 -35 47 -68 90 -72 95 -5 6
-45 57 -89 115 -44 58 -111 146 -149 195 -38 50 -90 117 -115 150 -25 34 -51
67 -58 75 -6 8 -32 42 -57 75 -24 33 -48 65 -52 70 -7 9 -65 83 -86 110 -4 6
-21 28 -38 50 -17 22 -56 74 -87 115 -31 41 -64 84 -74 94 -10 11 -18 23 -18
27 0 5 -9 17 -20 27 -29 26 -60 124 -48 146 9 16 7 17 -13 11 -13 -4 -42 -16
-64 -26 -79 -36 -369 -142 -620 -227 -259 -87 -679 -213 -760 -228 -13 -2 -36
-9 -50 -14 -14 -5 -25 -8 -25 -5 0 2 -18 -2 -40 -10 -22 -8 -40 -12 -40 -8 0
3 -7 0 -15 -7 -8 -7 -15 -10 -15 -7 0 3 -40 -5 -90 -18 -49 -13 -90 -21 -90
-19 0 3 -8 0 -17 -5 -10 -5 -34 -12 -54 -15 -20 -3 -92 -17 -160 -32 -68 -14
-135 -28 -149 -30 -14 -3 -70 -13 -125 -24 -125 -23 -176 -32 -195 -35 -28 -3
-112 -16 -133 -21 -12 -2 -40 -7 -62 -9 -22 -3 -58 -8 -80 -11 -60 -9 -74 -11
-140 -19 -33 -4 -73 -9 -90 -12 -16 -3 -46 -6 -65 -8 -56 -4 -154 -15 -175
-19 -11 -2 -60 -7 -110 -11 -49 -4 -108 -9 -130 -11 -22 -2 -83 -6 -135 -10
-52 -3 -117 -7 -145 -9 -419 -26 -1044 -22 -1480 10 -44 3 -108 7 -143 10 -35
2 -87 7 -115 10 -93 10 -151 16 -202 21 -51 5 -103 11 -165 19 -19 2 -55 7
-80 10 -25 3 -56 7 -70 10 -14 2 -45 6 -70 9 -25 3 -56 8 -70 11 -14 3 -45 7
-70 10 -25 3 -52 7 -60 10 -8 2 -35 6 -60 9 -25 3 -56 8 -70 11 -14 3 -38 8
-55 10 -16 3 -55 10 -85 16 -30 6 -66 12 -80 15 -26 5 -59 11 -100 19 -14 3
-56 12 -95 20 -38 8 -79 16 -90 19 -24 5 -153 35 -210 47 -22 5 -58 13 -80 19
-22 6 -51 13 -65 16 -14 3 -63 16 -110 28 -47 13 -98 27 -115 31 -16 5 -34 9
-40 11 -5 2 -41 12 -80 23 -38 10 -95 27 -125 35 -30 9 -59 18 -65 19 -49 14
-166 51 -190 60 -16 6 -35 12 -40 13 -42 6 -636 220 -757 273 -27 11 -48 18
-48 14 0 -3 -7 0 -15 7 -12 10 -15 10 -16 -1z"/>
<path d="M4997 3224 c-4 -5 -91 -17 -202 -30 -222 -24 -627 -20 -790 9 -16 3
-46 7 -65 9 -30 2 -35 0 -33 -17 1 -11 4 -54 7 -95 3 -41 7 -84 10 -95 2 -11
5 -27 5 -35 1 -14 65 -15 542 -15 619 0 551 -12 563 100 5 50 11 104 20 160 1
9 -49 17 -57 9z"/>
</g>
</svg>
