<svg id="Layer_1" data-name="Layer 1" xmlns="http://www.w3.org/2000/svg" viewBox="0 0 29.462 10"><defs><style>.cls-1{fill:#f4de7f;}.cls-2{fill:#ceb345;}</style></defs><path class="cls-1" d="M8.512,6.727c-.005.02,0-.044,0,0H7.621L7.6,6.513a2.659,2.659,0,0,0,.47.032A2.49,2.49,0,0,0,8.541,6.5" transform="translate(-1.612 -2.149)"/><path class="cls-1" d="M10.134,5.624a3.7,3.7,0,0,1-4.171-.012,3.862,3.862,0,0,1-1.539-2.72,9.627,9.627,0,0,0,3.6.714A9.63,9.63,0,0,0,11.7,2.892,3.876,3.876,0,0,1,10.134,5.624Z" transform="translate(-1.612 -2.149)"/><path class="cls-1" d="M11.718,2.807a10.473,10.473,0,0,1-3.65.657,10.492,10.492,0,0,1-3.65-.657,10.452,10.452,0,0,1,7.3,0Z" transform="translate(-1.612 -2.149)"/><line class="cls-1" x1="10.029" y1="0.797" x2="12.026" y2="3.655"/><path class="cls-1" d="M11.664,2.93,13.784,5.7a.178.178,0,0,1-.283.216l-.009-.013L11.617,2.963a.028.028,0,0,1,.009-.04A.028.028,0,0,1,11.664,2.93Z" transform="translate(-1.612 -2.149)"/><line class="cls-1" x1="10.054" y1="0.789" x2="11.08" y2="4.217"/><path class="cls-1" d="M11.693,2.93l1.169,3.385a.178.178,0,0,1-.337.117l0-.015-.883-3.471a.029.029,0,0,1,.021-.035A.029.029,0,0,1,11.693,2.93Z" transform="translate(-1.612 -2.149)"/><path class="cls-2" d="M4.418,2.5a11.185,11.185,0,0,0-1.1.29,9.735,9.735,0,0,0-1.363.535v1.3q0,.291,0,1.034c0,.5,0,.776,0,.843H1.612q0-.317,0-.8t0-1.274q0-.3,0-.933t0-1.2h.345L1.949,3l0,0a12.633,12.633,0,0,1,1.288-.495A8.962,8.962,0,0,1,4.31,2.2Z" transform="translate(-1.612 -2.149)"/><path class="cls-2" d="M21.876,6.8h-.33q0-.139,0-.636t0-.978V4.041a1.3,1.3,0,0,0-.252-.835,1.143,1.143,0,0,0-.934-.315,3.514,3.514,0,0,0-.947.148,4.7,4.7,0,0,0-1.077.474,1.817,1.817,0,0,1,.016.189c.006.1.008.166.008.2,0,.274,0,.5,0,.669s0,.43,0,.774V6.8h-.329q0-.183,0-.726c0-.362,0-.633,0-.815V4.033a1.535,1.535,0,0,0-.1-.585.8.8,0,0,0-.292-.366,1.006,1.006,0,0,0-.341-.144,1.99,1.99,0,0,0-.451-.047,3.12,3.12,0,0,0-.986.181,7.9,7.9,0,0,0-1.019.421V4.947q0,.456,0,1.022c0,.378,0,.655,0,.832h-.337q0-.18,0-.9t0-1.306q0-.557,0-1.014c0-.305,0-.6,0-.884h.337l-.008.463.02.013a6.2,6.2,0,0,1,1.113-.429,3.693,3.693,0,0,1,.949-.136,1.768,1.768,0,0,1,.81.162,1.068,1.068,0,0,1,.469.459h.02a4.919,4.919,0,0,1,1.03-.453,4,4,0,0,1,1.181-.168,1.5,1.5,0,0,1,1.085.349,1.343,1.343,0,0,1,.358,1q0,.537,0,.849c0,.209,0,.369,0,.48V6.8Z" transform="translate(-1.612 -2.149)"/><path class="cls-2" d="M26.675,4.586H22.562a1.739,1.739,0,0,0,.13.68,1.572,1.572,0,0,0,.374.543A2.336,2.336,0,0,0,24,6.335a4.494,4.494,0,0,0,1.355.185c.227,0,.394,0,.5-.006s.206-.011.3-.022l-.077.309c-.051,0-.114.007-.189.014s-.254.01-.538.01a5.188,5.188,0,0,1-1.49-.185,2.6,2.6,0,0,1-1.042-.595,1.96,1.96,0,0,1-.449-.626,1.8,1.8,0,0,1-.156-.744,1.961,1.961,0,0,1,.18-.835,1.985,1.985,0,0,1,.5-.664,2.3,2.3,0,0,1,.734-.419,2.631,2.631,0,0,1,.892-.15,2.557,2.557,0,0,1,.863.138,2,2,0,0,1,.657.374,1.792,1.792,0,0,1,.475.666A2.085,2.085,0,0,1,26.675,4.586ZM26.3,4.309a1.623,1.623,0,0,0-.571-1.03,1.887,1.887,0,0,0-1.217-.368,2.039,2.039,0,0,0-1.256.4,1.637,1.637,0,0,0-.659,1Z" transform="translate(-1.612 -2.149)"/><path class="cls-2" d="M31.074,6.8h-.337c0-.082,0-.288,0-.618s0-.612,0-.845q0-.394,0-.716c0-.214,0-.372,0-.475a1.322,1.322,0,0,0-.287-.939,1.347,1.347,0,0,0-1-.3,3.445,3.445,0,0,0-1.009.183,9.2,9.2,0,0,0-1.148.447V4.895q0,.557,0,1.186c0,.42,0,.66,0,.72h-.338q0-.09,0-.649t0-1.257q0-.813,0-1.348t0-.851h.33l-.005.532H27.3q.364-.169,1.018-.4a3.93,3.93,0,0,1,1.29-.225,1.578,1.578,0,0,1,1.092.341,1.2,1.2,0,0,1,.379.943c0,.214,0,.445,0,.7s0,.477,0,.682,0,.494,0,.87S31.074,6.736,31.074,6.8Z" transform="translate(-1.612 -2.149)"/><path class="cls-2" d="M7.7,9.5v.332a.964.964,0,0,1,.911-.53.886.886,0,0,1,.712.266,1.1,1.1,0,0,1,.183.342,1.338,1.338,0,0,1,.232-.348.974.974,0,0,1,.707-.26A1.074,1.074,0,0,1,11,9.44a.635.635,0,0,1,.3.374,1.181,1.181,0,0,1,.045.3c0,.119.005.248.005.392v.547a3.766,3.766,0,0,0,.044.776c.03.091.115.135.254.135h.26c.081,0,.122.021.122.062s-.034.065-.1.065H11.91l-.193-.016-.227-.016h-.425l-.227.016-.193.016h-.016c-.071,0-.106-.02-.106-.061s.041-.066.122-.066H10.9c.144,0,.231-.043.26-.129a3.683,3.683,0,0,0,.044-.782v-.6a4.915,4.915,0,0,0-.016-.528.548.548,0,0,0-.111-.234.756.756,0,0,0-.657-.282.8.8,0,0,0-.735.387,1.546,1.546,0,0,0-.143.762v.491a4.03,4.03,0,0,0,.041.782c.028.086.115.129.263.129H10.1c.081,0,.121.021.121.062s-.033.065-.1.065H10.1l-.188-.016-.227-.016H9.264l-.232.016-.193.016H8.822c-.07,0-.1-.02-.1-.061s.04-.066.122-.066H9.1c.14,0,.224-.043.254-.132a3.769,3.769,0,0,0,.044-.779v-.691a3.267,3.267,0,0,0-.011-.353.667.667,0,0,0-.145-.325A.773.773,0,0,0,8.6,9.416a.872.872,0,0,0-.735.342,1.072,1.072,0,0,0-.166.652v.646a3.918,3.918,0,0,0,.042.779c.028.089.113.132.255.132h.27c.082,0,.123.021.123.062s-.035.065-.105.065H8.27l-.194-.016-.232-.016H7.43l-.232.016-.193.016H6.988c-.07,0-.105-.02-.105-.061s.041-.066.122-.066h.259c.144,0,.23-.043.26-.132a3.769,3.769,0,0,0,.044-.779V9.841c-.008-.192-.037-.3-.088-.331a.245.245,0,0,0-.138-.028c-.022,0-.083,0-.183.011L7.01,9.5H6.993c-.073,0-.11-.023-.11-.071s.031-.072.094-.072h.016l.161.017H7.4c.021,0,.056,0,.1-.008a.951.951,0,0,1,.105-.009C7.671,9.36,7.7,9.408,7.7,9.5Z" transform="translate(-1.612 -2.149)"/><path class="cls-2" d="M14.224,11.564l-.005-.044-.022.039a1.353,1.353,0,0,1-.2.255,1.167,1.167,0,0,1-.849.335.958.958,0,0,1-.644-.209.683.683,0,0,1-.248-.547.718.718,0,0,1,.178-.486.823.823,0,0,1,.472-.265,3.649,3.649,0,0,1,.472-.056,1.387,1.387,0,0,0,.65-.156.445.445,0,0,0,.2-.4.535.535,0,0,0-.217-.445.91.91,0,0,0-.573-.168,1.1,1.1,0,0,0-.614.16.474.474,0,0,0-.242.4c0,.058.017.088.05.088q.011,0,.033-.021a.116.116,0,0,1,.011-.034.146.146,0,0,1,.149-.093c.111,0,.166.058.166.176a.221.221,0,0,1-.075.164.26.26,0,0,1-.179.068.286.286,0,0,1-.218-.1A.319.319,0,0,1,12.424,10a.592.592,0,0,1,.284-.5,1.212,1.212,0,0,1,.709-.2,1.041,1.041,0,0,1,.68.205.868.868,0,0,1,.271.707v1.375c.011.3.109.448.292.448.2,0,.3-.136.3-.41v-.27c0-.106.021-.16.072-.16s.067.036.067.111v.221c-.012.412-.161.617-.448.617-.269,0-.412-.161-.431-.485Zm-1.055.476a1.052,1.052,0,0,0,1.055-1.056v-.535c0-.037-.008-.056-.022-.056a.347.347,0,0,0-.06.067,1.12,1.12,0,0,1-.785.253,2.093,2.093,0,0,0-.528.084.637.637,0,0,0-.29.2.608.608,0,0,0-.132.4.577.577,0,0,0,.215.459A.821.821,0,0,0,13.169,12.04Z" transform="translate(-1.612 -2.149)"/><path class="cls-2" d="M16.058,9.835a.954.954,0,0,1,.868-.53.8.8,0,0,1,.543.185.6.6,0,0,1,.213.479.52.52,0,0,1-.1.322.294.294,0,0,1-.245.129c-.133,0-.2-.06-.2-.182a.147.147,0,0,1,.166-.166.157.157,0,0,1,.088.034.139.139,0,0,0,.061.033c.048,0,.071-.067.071-.2a.475.475,0,0,0-.171-.379.666.666,0,0,0-.447-.145.748.748,0,0,0-.691.353,1.621,1.621,0,0,0-.16.817v.47a3.662,3.662,0,0,0,.045.779c.029.089.113.132.254.132h.259c.081,0,.122.021.122.062s-.035.065-.105.065h-.017l-.193-.016-.227-.016h-.425l-.226.016-.194.016h-.017c-.07,0-.1-.02-.1-.061s.04-.066.121-.066h.26c.144,0,.23-.043.26-.132a3.8,3.8,0,0,0,.043-.779V9.841c-.007-.192-.035-.3-.083-.331a.27.27,0,0,0-.143-.028c-.022,0-.082,0-.182.011l-.166.01c-.074,0-.11-.023-.11-.071s.031-.072.094-.072c.033,0,.091,0,.176.011.041,0,.083.006.127.006h.083a1.618,1.618,0,0,0,.177-.013.1.1,0,0,0,.027,0h.028a.1.1,0,0,1,.116.12Z" transform="translate(-1.612 -2.149)"/><path class="cls-2" d="M18.676,10.879l1.392-1.237a.123.123,0,0,0,.05-.089c0-.043-.035-.066-.1-.066h-.077c-.045,0-.085,0-.122.006-.074.008-.122.01-.144.01-.077,0-.116-.023-.116-.071s.037-.072.111-.072c.011,0,.068.006.171.017A4.536,4.536,0,0,0,20.3,9.4a3.91,3.91,0,0,0,.453-.029,1.652,1.652,0,0,1,.166-.011c.074,0,.111.022.111.067s-.039.071-.116.071H20.9l-.116-.011H20.67a.791.791,0,0,0-.508.243l-.624.564c-.044.04-.066.071-.066.094a.209.209,0,0,0,.044.077l.917,1.3a.411.411,0,0,0,.359.2l.143-.011.133-.011c.078,0,.116.025.116.072s-.046.071-.138.071c-.037,0-.1-.005-.2-.016-.041-.007-.116-.015-.227-.022l-.176-.005c-.011,0-.087.005-.227.016l-.21.016-.176.011h-.023c-.076,0-.116-.02-.116-.06s.04-.061.116-.061h.255q.237,0,.237-.093a.262.262,0,0,0-.055-.123l-.177-.264-.646-.906c-.033-.048-.065-.072-.094-.072s-.046.016-.083.05l-.569.514v.287a2.078,2.078,0,0,0,.023.4.272.272,0,0,0,.292.2h.26c.081,0,.121.02.121.058s-.035.063-.105.063h-.016l-.194-.013-.226-.01-.172-.009h-.11l-.155.009-.232.01-.193.013h-.016c-.07,0-.105-.019-.105-.058s.04-.063.121-.063h.26c.143,0,.23-.043.259-.13a3.6,3.6,0,0,0,.045-.776V9.128a2.337,2.337,0,0,0-.042-.632c-.027-.05-.089-.074-.185-.074a1.512,1.512,0,0,0-.182.011.865.865,0,0,0-.166.021c-.073,0-.11-.025-.11-.077s.031-.066.093-.066h.615a.106.106,0,0,1,.115.082,1.674,1.674,0,0,1,0,.172v2.314Z" transform="translate(-1.612 -2.149)"/><path class="cls-2" d="M23.626,10.515c0,.077-.017.124-.052.137a.44.44,0,0,1-.163.023H21.455c-.051,0-.084.007-.1.022a.191.191,0,0,0-.02.11,1.3,1.3,0,0,0,.3.893,1.089,1.089,0,0,0,1.609-.031.89.89,0,0,0,.166-.314,1.15,1.15,0,0,1,.028-.139c.014-.062.042-.093.083-.093s.066.026.066.077a.733.733,0,0,1-.061.248,1.063,1.063,0,0,1-.422.517,1.229,1.229,0,0,1-.677.184,1.158,1.158,0,0,1-.906-.38,1.45,1.45,0,0,1-.342-1.006,1.536,1.536,0,0,1,.356-1.052,1.165,1.165,0,0,1,.919-.406,1.1,1.1,0,0,1,.829.351A1.192,1.192,0,0,1,23.626,10.515Zm-2.265-.05c0,.055.041.084.122.084h1.9c.063,0,.094-.03.094-.089a1.1,1.1,0,0,0-.243-.675.928.928,0,0,0-.784-.369,1.032,1.032,0,0,0-.655.213,1.154,1.154,0,0,0-.39.6A.854.854,0,0,0,21.361,10.465Z" transform="translate(-1.612 -2.149)"/><path class="cls-2" d="M24.626,9.559a1.545,1.545,0,0,0-.006.183V10.9a3.248,3.248,0,0,0,.066.783.483.483,0,0,0,.851.164,1.326,1.326,0,0,0,.116-.649v-.221c0-.077.025-.116.074-.116s.075.039.075.116v.137a2.675,2.675,0,0,1-.055.609.548.548,0,0,1-.608.424c-.442,0-.662-.315-.662-.949V9.742a.557.557,0,0,0-.025-.218c-.017-.029-.062-.042-.136-.042-.022,0-.077,0-.166.011l-.126.01c-.071,0-.106-.025-.106-.076s.033-.067.1-.067c.029,0,.074,0,.132.009s.1.008.133.008c.114,0,.184-.035.21-.106a.7.7,0,0,0,.022-.214V9.029a1.768,1.768,0,0,1,.014-.29.063.063,0,0,1,.064-.058c.04,0,.06.029.06.089v.011l-.017.264a1.265,1.265,0,0,0-.016.21c0,.081.054.122.162.122h.185c.041,0,.1,0,.188-.008s.146-.009.187-.009c.075,0,.112.025.112.072s-.04.071-.122.071h-.01L25.15,9.5c-.029,0-.09,0-.182-.011s-.138-.005-.183-.005C24.686,9.482,24.633,9.507,24.626,9.559Z" transform="translate(-1.612 -2.149)"/></svg>